<svg width="74" height="75" viewBox="0 0 74 75" fill="none" xmlns="http://www.w3.org/2000/svg">
<path d="M35.3304 30.4151V11.3644L17.6652 0.626772L0 11.3644V31.1079L17.6652 41.1528L35.3304 30.4151Z" fill="#BE861A"/>
<path d="M38.4478 30.7615V10.6717L55.7666 0.280396L73.0854 10.6717V30.7615L55.7666 41.1528L38.4478 30.7615Z" fill="#BE861A"/>
<path d="M19.3971 43.2311L36.7159 33.5325L54.0347 43.2311V64.36L36.7159 74.4049L19.3971 64.36V43.2311Z" fill="#BE861A"/>
<path d="M50.2249 60.2034C51.6104 61.9353 45.364 65.8825 41.2192 68.1701C37.0744 70.4576 36.3136 69.7995 35.8514 68.9621C35.3892 68.1247 35.4007 67.4251 39.5455 65.1375C43.6902 62.85 49.5322 58.1253 50.2249 60.2034Z" fill="#D9D9D9"/>
<path d="M3.81064 14.4817C2.52623 12.6736 8.98777 8.39664 13.2564 6.3493C17.5249 4.30197 18.2912 4.26736 18.7048 5.12978C19.1185 5.99219 19.0229 7.4251 14.7543 9.47243C10.4857 11.5198 4.38364 16.5959 3.81064 14.4817Z" fill="#D9D9D9"/>
<path d="M42.2904 14.5756C41.006 12.7675 47.4675 8.49052 51.7361 6.44319C56.0047 4.39585 56.7709 4.36125 57.1846 5.22367C57.5982 6.08608 57.5026 7.51899 53.234 9.56632C48.9654 11.6137 42.8634 16.6898 42.2904 14.5756Z" fill="#D9D9D9"/>
</svg>
