<svg width="26" height="33" viewBox="0 0 26 33" fill="none" xmlns="http://www.w3.org/2000/svg">
<path d="M15.7288 10.3091C11.3181 10.3091 7.47675 7.76741 5.45317 4.0078C8.20384 1.51212 11.7955 0 15.7244 0C19.6533 0 23.2449 1.51212 26 4.0124C23.9764 7.77201 20.1351 10.3137 15.7244 10.3137L15.7288 10.3091ZM3.82379 27.2825C1.44104 24.3915 0 20.6227 0 16.5C0 12.3773 1.44104 8.6085 3.82379 5.71755C7.40667 7.84095 9.82884 11.8717 9.82884 16.5C9.82884 21.1283 7.40667 25.1591 3.82379 27.2825ZM15.7244 22.6864C20.1351 22.6864 23.9764 25.228 26 28.9876C23.2449 31.4879 19.6533 33 15.7244 33C11.7955 33 8.20384 31.4879 5.44879 28.9876C7.47237 25.228 11.3137 22.6864 15.7244 22.6864Z" fill="#62D89F"/>
</svg>
