<svg width="55" height="70" viewBox="0 0 55 70" fill="none" xmlns="http://www.w3.org/2000/svg">
<path d="M33.2724 22.4719C23.942 22.4719 15.8162 17.1576 11.5355 9.29657C17.3543 4.07833 24.952 0.916626 33.2631 0.916626C41.5743 0.916626 49.172 4.07833 55 9.30618C50.7193 17.1672 42.5935 22.4815 33.2631 22.4815L33.2724 22.4719ZM8.08878 57.9618C3.04835 51.9171 0 44.0368 0 35.4166C0 26.7964 3.04835 18.9162 8.08878 12.8715C15.668 17.3113 20.7918 25.7393 20.7918 35.4166C20.7918 45.0939 15.668 53.5219 8.08878 57.9618ZM33.2631 48.3517C42.5935 48.3517 50.7193 53.6661 55 61.5271C49.172 66.7549 41.5743 69.9166 33.2631 69.9166C24.952 69.9166 17.3543 66.7549 11.5263 61.5271C15.8069 53.6661 23.9328 48.3517 33.2631 48.3517Z" fill="#62D89F"/>
</svg>
