<svg width="81" height="85" viewBox="0 0 81 85" fill="none" xmlns="http://www.w3.org/2000/svg">
<circle cx="39.5171" cy="21.7912" r="6.47998" fill="#2A4ECE"/>
<circle cx="59.5459" cy="21.7912" r="6.47998" fill="#2A4ECE"/>
<circle cx="21.844" cy="21.7912" r="6.47998" fill="#2A4ECE"/>
<circle cx="41.3933" cy="62.029" r="6.47998" transform="rotate(-180 41.3933 62.029)" fill="#2A4ECE"/>
<circle cx="21.364" cy="62.029" r="6.47998" transform="rotate(-180 21.364 62.029)" fill="#2A4ECE"/>
<circle cx="59.0657" cy="62.0289" r="6.47998" transform="rotate(-180 59.0657 62.0289)" fill="#2A4ECE"/>
<circle cx="34.3559" cy="4.45433" r="4.35606" transform="rotate(-180 34.3559 4.45433)" fill="#2A4ECE"/>
<circle cx="46.5531" cy="4.45433" r="4.35606" transform="rotate(-180 46.5531 4.45433)" fill="#2A4ECE"/>
<circle cx="34.3559" cy="79.7271" r="4.35606" transform="rotate(-180 34.3559 79.7271)" fill="#2A4ECE"/>
<circle cx="46.5531" cy="79.7271" r="4.35606" transform="rotate(-180 46.5531 79.7271)" fill="#2A4ECE"/>
<circle cx="28.9394" cy="42.9417" r="7.48485" fill="#2A4ECE"/>
<circle cx="51.97" cy="42.9417" r="7.48485" fill="#2A4ECE"/>
<circle cx="72.6977" cy="42.9417" r="7.48485" fill="#2A4ECE"/>
<circle cx="8.21239" cy="42.9416" r="7.48485" fill="#2A4ECE"/>
</svg>
