<svg width="38" height="38" viewBox="0 0 38 38" fill="none" xmlns="http://www.w3.org/2000/svg">
<path d="M19.0601 0C8.62108 0 0.140137 8.48094 0.140137 18.92C0.140137 28.3965 7.12982 36.239 16.2332 37.6065L17.2209 37.756V22.8471H12.7512V19.8203H17.2209V15.8008C17.2209 13.3257 17.8148 11.6955 18.7981 10.6727C19.7814 9.64997 21.2342 9.13414 23.256 9.13414C24.8726 9.13414 25.5016 9.23209 26.0997 9.30547V11.783H23.9951C22.8009 11.783 21.8211 12.4493 21.3126 13.3367C20.8041 14.2242 20.6458 15.2838 20.6458 16.3635V19.8186H25.9116L25.4429 22.8454H20.6458V37.7795L21.6217 37.6468C30.8545 36.3947 37.9801 28.4891 37.9801 18.92C37.9801 8.48094 29.4992 0 19.0601 0ZM19.0601 1.72C28.5696 1.72 36.2601 9.4105 36.2601 18.92C36.2601 27.2876 30.2709 34.1693 22.3658 35.7186V24.5654H26.9177L27.9171 18.0986H22.3658V16.3635C22.3658 15.4713 22.529 14.6719 22.8042 14.1917C23.0793 13.7115 23.3445 13.503 23.9951 13.503H27.8197V7.7484L27.0739 7.64762C26.5581 7.57782 25.3804 7.41414 23.256 7.41414C20.9313 7.41414 18.9359 8.04741 17.5585 9.48016C16.1811 10.9129 15.5009 13.0463 15.5009 15.8008V18.1003H11.0312V24.5671H15.5009V35.6648C7.72275 34.0171 1.86014 27.197 1.86014 18.92C1.86014 9.4105 9.55063 1.72 19.0601 1.72Z" fill="white"/>
</svg>
