<svg width="35" height="36" viewBox="0 0 35 36" fill="none" xmlns="http://www.w3.org/2000/svg">
<path d="M16.8971 14.4123V5.30106L8.44857 0.165658L0 5.30106V14.7436L8.44857 19.5477L16.8971 14.4123Z" fill="#BE861A"/>
<path d="M18.3881 14.5779V4.96975L26.671 0L34.9539 4.96975V14.5779L26.671 19.5477L18.3881 14.5779Z" fill="#BE861A"/>
<path d="M9.27686 20.5416L17.5598 15.9032L25.8427 20.5416V30.6468L17.5598 35.4509L9.27686 30.6468V20.5416Z" fill="#BE861A"/>
<path d="M24.0204 28.6589C24.6831 29.4871 21.6956 31.3749 19.7133 32.469C17.731 33.5631 17.3672 33.2483 17.1461 32.8478C16.9251 32.4473 16.9306 32.1127 18.9129 31.0187C20.8951 29.9246 23.6891 27.665 24.0204 28.6589Z" fill="#D9D9D9"/>
<path d="M1.8222 6.79192C1.20792 5.92718 4.29822 3.88168 6.33972 2.90252C8.38122 1.92336 8.74769 1.90681 8.94552 2.31927C9.14334 2.73173 9.09763 3.41703 7.05613 4.39619C5.01463 5.37535 2.09625 7.80307 1.8222 6.79192Z" fill="#D9D9D9"/>
<path d="M20.2258 6.83685C19.6115 5.9721 22.7018 3.9266 24.7433 2.94744C26.7848 1.96828 27.1513 1.95173 27.3491 2.36419C27.5469 2.77665 27.5012 3.46195 25.4597 4.44111C23.4182 5.42027 20.4998 7.84799 20.2258 6.83685Z" fill="#D9D9D9"/>
</svg>
