<svg width="38" height="41" viewBox="0 0 38 41" fill="none" xmlns="http://www.w3.org/2000/svg">
<circle cx="18.5513" cy="10.3749" r="3.09912" fill="#2A4ECE"/>
<circle cx="28.1304" cy="10.3749" r="3.09912" fill="#2A4ECE"/>
<circle cx="10.0991" cy="10.3749" r="3.09912" fill="#2A4ECE"/>
<circle cx="19.4487" cy="29.619" r="3.09912" transform="rotate(-180 19.4487 29.619)" fill="#2A4ECE"/>
<circle cx="9.86963" cy="29.619" r="3.09912" transform="rotate(-180 9.86963 29.619)" fill="#2A4ECE"/>
<circle cx="27.9009" cy="29.619" r="3.09912" transform="rotate(-180 27.9009 29.619)" fill="#2A4ECE"/>
<circle cx="16.0833" cy="2.08329" r="2.08333" transform="rotate(-180 16.0833 2.08329)" fill="#2A4ECE"/>
<circle cx="21.9167" cy="2.08329" r="2.08333" transform="rotate(-180 21.9167 2.08329)" fill="#2A4ECE"/>
<circle cx="16.0833" cy="38.0833" r="2.08333" transform="rotate(-180 16.0833 38.0833)" fill="#2A4ECE"/>
<circle cx="21.9167" cy="38.0833" r="2.08333" transform="rotate(-180 21.9167 38.0833)" fill="#2A4ECE"/>
<circle cx="13.4928" cy="20.4902" r="3.57971" fill="#2A4ECE"/>
<circle cx="24.5072" cy="20.4902" r="3.57971" fill="#2A4ECE"/>
<circle cx="34.4203" cy="20.4902" r="3.57971" fill="#2A4ECE"/>
<circle cx="3.57971" cy="20.4902" r="3.57971" fill="#2A4ECE"/>
</svg>
