<svg width="38" height="38" viewBox="0 0 38 38" fill="none" xmlns="http://www.w3.org/2000/svg">
<path d="M11.18 0C5.01594 0 0 5.01594 0 11.18V26.66C0 32.8241 5.01594 37.84 11.18 37.84H26.66C32.8241 37.84 37.84 32.8241 37.84 26.66V11.18C37.84 5.01594 32.8241 0 26.66 0H11.18ZM11.18 1.72H26.66C31.8944 1.72 36.12 5.94562 36.12 11.18V26.66C36.12 31.8944 31.8944 36.12 26.66 36.12H11.18C5.94562 36.12 1.72 31.8944 1.72 26.66V11.18C1.72 5.94562 5.94562 1.72 11.18 1.72ZM29.24 6.88C28.7838 6.88 28.3463 7.06121 28.0238 7.38378C27.7012 7.70634 27.52 8.14383 27.52 8.6C27.52 9.05617 27.7012 9.49366 28.0238 9.81622C28.3463 10.1388 28.7838 10.32 29.24 10.32C29.6962 10.32 30.1337 10.1388 30.4562 9.81622C30.7788 9.49366 30.96 9.05617 30.96 8.6C30.96 8.14383 30.7788 7.70634 30.4562 7.38378C30.1337 7.06121 29.6962 6.88 29.24 6.88ZM18.92 9.46C13.7056 9.46 9.46 13.7056 9.46 18.92C9.46 24.1344 13.7056 28.38 18.92 28.38C24.1344 28.38 28.38 24.1344 28.38 18.92C28.38 13.7056 24.1344 9.46 18.92 9.46ZM18.92 11.18C23.2049 11.18 26.66 14.6351 26.66 18.92C26.66 23.2049 23.2049 26.66 18.92 26.66C14.6351 26.66 11.18 23.2049 11.18 18.92C11.18 14.6351 14.6351 11.18 18.92 11.18Z" fill="white"/>
</svg>
