<svg width="37" height="37" viewBox="0 0 37 37" fill="none" xmlns="http://www.w3.org/2000/svg">
<path d="M4.3 0.859863C1.93542 0.859863 0 2.79528 0 5.15986V32.6799C0 35.0444 1.93542 36.9799 4.3 36.9799H31.82C34.1846 36.9799 36.12 35.0444 36.12 32.6799V5.15986C36.12 2.79528 34.1846 0.859863 31.82 0.859863H4.3ZM4.3 2.57986H31.82C33.2549 2.57986 34.4 3.72497 34.4 5.15986V32.6799C34.4 34.1148 33.2549 35.2599 31.82 35.2599H4.3C2.8651 35.2599 1.72 34.1148 1.72 32.6799V5.15986C1.72 3.72497 2.8651 2.57986 4.3 2.57986ZM8.6 6.88994C7.65811 6.88994 6.81053 7.17147 6.18293 7.69955C5.55533 8.22763 5.17008 9.01654 5.17008 9.86131C5.17008 11.4671 6.5629 12.7189 8.33461 12.8428L8.33797 12.8444C8.42239 12.8732 8.51082 12.8885 8.6 12.8898C10.5548 12.8898 12.0299 11.5205 12.0299 9.86131C12.0298 9.84618 12.0292 9.83106 12.0282 9.81596C11.9407 8.18176 10.4838 6.88994 8.6 6.88994ZM8.6 8.58978C9.79732 8.58978 10.2701 9.1245 10.3217 9.88315C10.3112 10.6195 9.85568 11.1899 8.6 11.1899C7.40855 11.1899 6.86992 10.5798 6.86992 9.86131C6.86992 9.50207 7.001 9.23136 7.27641 8.99963C7.55181 8.7679 7.99389 8.58978 8.6 8.58978ZM6.02 13.7599C5.79192 13.7599 5.57319 13.8505 5.41191 14.0118C5.25064 14.1731 5.16002 14.3918 5.16 14.6199V30.9599C5.16002 31.1879 5.25064 31.4067 5.41191 31.5679C5.57319 31.7292 5.79192 31.8198 6.02 31.8199H11.18C11.4081 31.8198 11.6268 31.7292 11.7881 31.5679C11.9494 31.4067 12.04 31.1879 12.04 30.9599V25.9158V14.6199C12.04 14.3918 11.9494 14.1731 11.7881 14.0118C11.6268 13.8505 11.4081 13.7599 11.18 13.7599H6.02ZM13.76 13.7599C13.5319 13.7599 13.3132 13.8505 13.1519 14.0118C12.9906 14.1731 12.9 14.3918 12.9 14.6199V30.9599C12.9 31.1879 12.9906 31.4067 13.1519 31.5679C13.3132 31.7292 13.5319 31.8198 13.76 31.8199H18.92C19.1481 31.8198 19.3668 31.7292 19.5281 31.5679C19.6894 31.4067 19.78 31.1879 19.78 30.9599V22.3599C19.78 21.6463 19.9747 20.9366 20.3175 20.4719C20.6603 20.0072 21.0928 19.7283 21.9149 19.7429C22.7626 19.7575 23.2114 20.0479 23.5509 20.5038C23.8904 20.9597 24.08 21.6432 24.08 22.3599V30.9599C24.08 31.1879 24.1706 31.4067 24.3319 31.5679C24.4932 31.7292 24.7119 31.8198 24.94 31.8199H30.1C30.3281 31.8198 30.5468 31.7292 30.7081 31.5679C30.8694 31.4067 30.96 31.1879 30.96 30.9599V21.7249C30.96 19.178 30.2056 17.1606 28.9125 15.7956C27.6193 14.4307 25.8208 13.7599 23.9187 13.7599C22.111 13.7599 20.7353 14.3661 19.78 14.9844V14.6199C19.78 14.3918 19.6894 14.1731 19.5281 14.0118C19.3668 13.8505 19.1481 13.7599 18.92 13.7599H13.76ZM6.88 15.4799H10.32V25.9158V30.0999H6.88V15.4799ZM14.62 15.4799H18.06V16.8219C18.0601 17.0023 18.1168 17.178 18.2222 17.3243C18.3276 17.4707 18.4763 17.5802 18.6473 17.6374C18.8183 17.6946 19.003 17.6965 19.1752 17.6431C19.3474 17.5896 19.4985 17.4833 19.607 17.3393C19.607 17.3393 20.9575 15.4799 23.9187 15.4799C25.4266 15.4799 26.7197 15.9809 27.6645 16.9781C28.6093 17.9754 29.24 19.5118 29.24 21.7249V30.0999H25.8V22.3599C25.8 21.3565 25.5596 20.3192 24.9316 19.4758C24.3036 18.6325 23.2474 18.0453 21.9451 18.0229C20.6362 17.9997 19.5629 18.5991 18.9334 19.4523C18.304 20.3056 18.06 21.3534 18.06 22.3599V30.0999H14.62V15.4799Z" fill="white"/>
</svg>
