<svg width="119" height="38" viewBox="0 0 119 38" fill="none" xmlns="http://www.w3.org/2000/svg">
<mask id="mask0_2205_692" style="mask-type:luminance" maskUnits="userSpaceOnUse" x="0" y="0" width="119" height="38">
<path d="M118.652 0.56604H0V37.3046H118.652V0.56604Z" fill="white"/>
</mask>
<g mask="url(#mask0_2205_692)">
<path d="M116.009 17.3564C116.009 16.6201 116.605 16.0281 117.331 16.0281C118.055 16.0281 118.652 16.6201 118.652 17.3564C118.652 18.0927 118.063 18.6848 117.331 18.6848C116.598 18.6848 116.009 18.0851 116.009 17.3564ZM118.448 17.3564C118.448 16.696 117.965 16.2102 117.323 16.2102C116.681 16.2102 116.206 16.6885 116.206 17.3564C116.206 18.0244 116.689 18.5026 117.323 18.5026C117.957 18.5026 118.448 18.0244 118.448 17.3564ZM116.848 16.5367H117.368C117.693 16.5367 117.859 16.7492 117.859 16.9921C117.859 17.235 117.701 17.3716 117.436 17.4096C117.504 17.4627 117.557 17.5234 117.625 17.6221L117.994 18.1535H117.715L117.331 17.5841C117.247 17.4627 117.202 17.4248 117.081 17.4248V18.1459H116.855V16.5367H116.848ZM117.24 17.2426C117.421 17.2426 117.61 17.2198 117.61 16.9921C117.61 16.8402 117.534 16.7416 117.315 16.7416H117.074V17.2502H117.24V17.2426Z" fill="white"/>
<path d="M58.1481 27.2091H55.9889C55.8077 27.2091 55.6416 27.0573 55.6039 26.8828L54.6677 23.2165H49.9868L49.0506 26.8828C49.0054 27.0573 48.8468 27.2091 48.6656 27.2091H46.5064C46.3026 27.2091 46.144 27.0725 46.144 26.8828C46.144 26.86 46.1591 26.8296 46.1591 26.7841L49.4961 14.6922C49.9868 12.9009 51.4515 12.7262 52.3197 12.7262C53.1879 12.7262 54.6601 12.9009 55.1509 14.6922L58.4878 26.7841C58.4878 26.822 58.5029 26.86 58.5029 26.8828C58.5029 27.0725 58.3444 27.2091 58.1406 27.2091M52.6594 15.2919C52.5991 15.0566 52.5386 14.9806 52.3348 14.9806C52.131 14.9806 52.0705 15.0566 52.0102 15.2919L50.5455 21.0228H54.1241L52.6594 15.2919ZM68.5819 16.643C68.5819 16.4684 68.4383 16.3318 68.257 16.3318H66.2265C66.0452 16.3318 65.8566 16.4684 65.7957 16.7189L63.848 24.8029C63.7653 25.1673 63.6217 25.2887 63.4629 25.2887C63.3047 25.2887 63.1611 25.1749 63.0783 24.8029L61.13 16.7189C61.0698 16.4684 60.9036 16.3318 60.7226 16.3318H58.6917C58.5105 16.3318 58.3671 16.4684 58.3671 16.643C58.3671 16.681 58.367 16.7417 58.3821 16.7797L60.9493 25.5544C61.357 26.9814 62.4291 27.3686 63.4708 27.3686C64.5125 27.3686 65.6071 26.9814 66.0148 25.5544L68.574 16.7797C68.5971 16.7417 68.5971 16.681 68.5971 16.643M77.9286 27.2091H76.1994C75.973 27.2091 75.7917 27.0346 75.7917 26.822V26.5108C74.8559 27.0497 73.8969 27.361 72.9228 27.361C71.2391 27.361 69.4046 26.7461 69.4046 24.1426V24.0666C69.4046 21.8653 70.8314 20.7267 74.3648 20.7267H75.6481V19.8766C75.6481 18.6242 75.0597 18.3129 73.8592 18.3129C72.5528 18.3129 71.2166 18.3889 70.5449 18.4723H70.4469C70.243 18.4723 70.0769 18.4117 70.0769 18.146V16.9087C70.0769 16.6961 70.1974 16.5595 70.4615 16.5064C71.2768 16.347 72.4548 16.1952 73.8592 16.1952C76.7433 16.1952 78.3363 17.4097 78.3363 19.8766V26.822C78.3363 27.0346 78.155 27.2091 77.9286 27.2091ZM75.6481 22.4271H74.3648C72.5151 22.4271 72.1074 22.9812 72.1074 24.0666V24.1426C72.1074 25.0913 72.5528 25.3418 73.572 25.3418C74.3046 25.3418 75.0597 25.1065 75.6481 24.8029V22.4271ZM83.6811 14.4949V12.7946C83.6811 12.582 83.5004 12.4075 83.2734 12.4075H81.3032C81.0769 12.4075 80.873 12.582 80.873 12.7946V14.4949C80.873 14.7074 81.0769 14.882 81.3032 14.882H83.2734C83.5004 14.882 83.6811 14.7074 83.6811 14.4949ZM83.6209 26.8068V16.7189C83.6209 16.5064 83.4395 16.3318 83.2132 16.3318H81.3409C81.1146 16.3318 80.9333 16.5064 80.9333 16.7189V26.8068C80.9333 27.0194 81.1146 27.2091 81.3409 27.2091H83.2132C83.4395 27.2091 83.6209 27.0194 83.6209 26.8068ZM89.0113 26.8068V12.916C89.0113 12.7035 88.8531 12.5289 88.6261 12.5289H86.7387C86.5123 12.5289 86.331 12.7035 86.331 12.916V26.8068C86.331 27.0194 86.5123 27.2091 86.7387 27.2091H88.6261C88.8531 27.2091 89.0113 27.0194 89.0113 26.8068ZM94.4626 14.4949V12.7946C94.4626 12.582 94.2813 12.4075 94.0549 12.4075H92.0841C91.8577 12.4075 91.6539 12.582 91.6539 12.7946V14.4949C91.6539 14.7074 91.8577 14.882 92.0841 14.882H94.0549C94.2734 14.882 94.4626 14.7074 94.4626 14.4949ZM94.4017 26.8068V16.7189C94.4017 16.5064 94.221 16.3318 93.9941 16.3318H92.1218C91.8955 16.3318 91.7141 16.5064 91.7141 16.7189V26.8068C91.7141 27.0194 91.8955 27.2091 92.1218 27.2091H93.9941C94.221 27.2091 94.4017 27.0194 94.4017 26.8068ZM102.835 25.3798H101.755C101.023 25.3798 100.963 25.266 100.963 24.3019V18.2446H102.79C103.016 18.2446 103.197 18.07 103.197 17.8575V16.7189C103.197 16.5064 103.016 16.3318 102.79 16.3318H100.963V13.789C100.963 13.5991 100.819 13.5005 100.638 13.5005H100.555L98.7353 13.8041C98.5089 13.8421 98.3276 13.9787 98.3276 14.1913V16.3318H96.493C96.2667 16.3318 96.0854 16.5064 96.0854 16.7189V17.8575C96.0854 18.07 96.2667 18.2446 96.493 18.2446H98.3276V24.3019C98.3276 26.8828 99.1959 27.3686 101.491 27.3686C101.944 27.3686 102.39 27.3078 102.873 27.2319C103.137 27.1939 103.265 27.0801 103.265 26.8828V25.6683C103.265 25.4785 103.099 25.3798 102.835 25.3798ZM114.575 16.6582C114.575 16.4836 114.409 16.3318 114.212 16.3318H112.136C111.932 16.3318 111.766 16.4836 111.729 16.6582L109.531 24.9547H109.351C109.23 24.9547 109.147 24.856 109.063 24.5297L107.01 16.681C106.972 16.5064 106.806 16.3318 106.625 16.3318H104.572C104.307 16.3318 104.187 16.4457 104.187 16.643C104.187 16.681 104.187 16.7189 104.209 16.7797L106.874 25.6151C107.32 27.0801 108.052 27.2167 108.641 27.2167H108.95L108.784 27.7936C108.498 28.7956 108.052 29.0309 107.176 29.0309C106.602 29.0309 105.447 28.9322 104.881 28.917H104.843C104.624 28.917 104.435 29.0536 104.435 29.2662V30.4959C104.435 30.6932 104.639 30.7692 104.866 30.8222C105.334 30.9589 106.353 31.0727 107.025 31.0727C109.788 31.0727 110.543 30.1467 111.177 28.0441L114.575 16.7797C114.597 16.7417 114.597 16.7037 114.597 16.6658" fill="white"/>
<mask id="mask1_2205_692" style="mask-type:luminance" maskUnits="userSpaceOnUse" x="0" y="0" width="40" height="38">
<path d="M31.2483 12.6124C29.9045 12.6124 28.6588 13.2727 27.7302 14.4872L25.7522 17.1136L20.8599 23.6263L20.8146 23.7022C20.3617 24.4917 20.3239 25.3418 20.724 26.0249C21.1166 26.7081 21.864 27.1028 22.77 27.1028H28.7494C29.6629 27.1028 30.4028 26.7081 30.7954 26.0249C31.188 25.3418 31.1577 24.4993 30.6973 23.7022L30.6519 23.6263L27.8887 19.9525L26.2202 22.1689L27.9114 24.4233H23.5854L24.7103 22.9204L28.387 18.0245L29.829 16.1116C30.2442 15.5651 30.7123 15.2918 31.2257 15.2918H33.8606C35.0534 15.2918 35.9367 15.641 36.2916 16.2559C36.6464 16.8707 36.5105 17.8195 35.9141 18.8594L27.7906 33.0007C27.1942 34.033 26.4467 34.6327 25.7371 34.6327C25.0274 34.6327 24.28 34.0406 23.6911 33.0007L15.6279 18.9581L13.8839 21.2732L21.3808 34.3367C22.4605 36.2192 24.0535 37.3046 25.7295 37.3046C27.4056 37.3046 28.9985 36.2268 30.0857 34.3367L38.2092 20.1953C39.2888 18.3053 39.4323 16.3849 38.5867 14.9199C37.7411 13.4549 36.0198 12.6124 33.853 12.6124H31.2182H31.2483ZM9.0446 3.53397L0.928617 17.6753C0.324639 18.7228 0.0150995 19.7779 0 20.7647V20.9013C0.00754971 21.6452 0.188743 22.3359 0.543581 22.9583C1.38915 24.4233 3.11049 25.2659 5.27727 25.2659H7.91212C9.26353 25.2659 10.5017 24.5979 11.4303 23.391L13.4083 20.7647L18.3006 14.2519L18.3383 14.176C18.7913 13.3866 18.829 12.5364 18.4365 11.8533C18.0439 11.1701 17.2964 10.7754 16.3905 10.7754H10.4111C9.50509 10.7754 8.75771 11.1701 8.35758 11.8533C7.96499 12.5364 8.00272 13.3866 8.45573 14.1836L8.49345 14.2519L11.2642 17.9257L12.9327 15.7093L11.234 13.4625H15.56L9.31635 21.7742C8.90113 22.3207 8.43303 22.594 7.91212 22.594H5.27727C4.09195 22.594 3.20109 22.2373 2.84625 21.6224C2.49896 21.0076 2.63486 20.0587 3.22374 19.0188L11.3472 4.86991C11.9437 3.83 12.6911 3.23794 13.3932 3.23794C14.0953 3.23794 14.8503 3.83 15.4467 4.86991L23.5099 18.905L25.2539 16.5898L17.7494 3.53397C16.6623 1.6515 15.0769 0.56604 13.3932 0.56604C11.7096 0.56604 10.1242 1.6515 9.03706 3.53397" fill="white"/>
</mask>
<g mask="url(#mask1_2205_692)">
<path d="M39.4624 0.56604H0V37.3046H39.4624V0.56604Z" fill="url(#paint0_linear_2205_692)"/>
</g>
</g>
<defs>
<linearGradient id="paint0_linear_2205_692" x1="1.37224" y1="20.0157" x2="40.5327" y2="20.0157" gradientUnits="userSpaceOnUse">
<stop stop-color="#F26726"/>
<stop offset="0.22" stop-color="#F47920"/>
<stop offset="0.65" stop-color="#F9A811"/>
<stop offset="1" stop-color="#FED304"/>
</linearGradient>
</defs>
</svg>
