<svg width="114" height="39" viewBox="0 0 114 39" fill="none" xmlns="http://www.w3.org/2000/svg">
<path d="M18.8756 9.58322H14.6684C13.4163 9.58322 12.4038 8.56265 12.4038 7.30452V3.07045C12.4039 1.81329 13.4164 0.792725 14.6685 0.792725H18.8757C20.1261 0.792725 21.1393 1.81329 21.1393 3.07045V7.30452C21.1393 8.56265 20.126 9.58322 18.8756 9.58322Z" fill="#426DA9"/>
<path d="M7.99149 19.0739H3.25839C1.85223 19.0739 0.711426 17.9291 0.711426 16.5116V11.7474C0.711426 10.3331 1.85223 9.18457 3.25839 9.18457H7.99149C9.39838 9.18457 10.5388 10.3331 10.5388 11.7474V16.5116C10.5388 17.9291 9.39838 19.0739 7.99149 19.0739Z" fill="#6D2077"/>
<path d="M7.54097 28.9603H4.65027C3.79089 28.9603 3.09253 28.2601 3.09253 27.3936V24.4858C3.09253 23.6182 3.79089 22.9169 4.65027 22.9169H7.54097C8.40074 22.9169 9.09798 23.6182 9.09798 24.4858V27.3936C9.09798 28.2601 8.40074 28.9603 7.54097 28.9603Z" fill="#AF1685"/>
<path d="M15.3028 38.1524H11.8847C10.8686 38.1524 10.0449 37.3256 10.0449 36.3014V32.8613C10.0449 31.8372 10.8685 31.01 11.8847 31.01H15.3028C16.3188 31.01 17.1424 31.8371 17.1424 32.8613V36.3014C17.1424 37.3256 16.3188 38.1524 15.3028 38.1524Z" fill="#E63888"/>
<path d="M27.8293 11.3155H25.4611C24.7575 11.3155 24.1875 10.7403 24.1875 10.0345V7.65416C24.1875 6.94603 24.7574 6.37085 25.4611 6.37085H27.8293C28.5324 6.37085 29.1012 6.94603 29.1012 7.65416V10.0345C29.1012 10.7402 28.5325 11.3155 27.8293 11.3155Z" fill="#E63888"/>
<path d="M79.6541 12.9062C80.4069 12.9062 81.0162 12.2929 81.0162 11.5336C81.0162 10.7753 80.4068 10.1591 79.6541 10.1591C78.901 10.1591 78.2864 10.7753 78.2864 11.5336C78.2863 12.293 78.901 12.9062 79.6541 12.9062Z" fill="#1D4F91"/>
<path d="M29.837 27.5561C29.626 27.8748 29.2829 28.0338 28.9135 28.0338C28.7028 28.0338 28.4651 27.9809 28.2804 27.8748C27.9904 27.6886 27.779 27.2907 27.779 26.8925C27.779 26.7062 27.832 26.5203 27.9374 26.3614L31.1036 21.3441L27.9374 16.3266C27.8321 16.1672 27.779 15.9549 27.779 15.7686C27.779 15.3973 27.964 14.999 28.3071 14.8128C28.4915 14.7068 28.6765 14.6538 28.8872 14.6538C29.2566 14.6538 29.626 14.8128 29.837 15.1319L32.4225 19.2466L35.0339 15.1319C35.2453 14.8128 35.6148 14.6538 35.9842 14.6538C36.1952 14.6538 36.38 14.7067 36.5642 14.8128C36.9073 14.999 37.0917 15.3973 37.0917 15.7686C37.0917 15.9549 37.039 16.1672 36.9337 16.3266L33.7678 21.3441L36.9337 26.3614C37.039 26.5203 37.0917 26.7062 37.0917 26.8925C37.0917 27.2907 36.881 27.6886 36.5905 27.8748C36.4062 27.9808 36.1684 28.0338 35.9575 28.0338C35.5885 28.0338 35.2453 27.8748 35.0339 27.5561L32.4225 23.4677L29.837 27.5561ZM41.1238 16.2202C42.311 15.1319 43.9203 14.4683 45.6617 14.4683C49.461 14.4683 52.4949 17.5214 52.4949 21.3441C52.4949 25.1145 49.461 28.1671 45.6617 28.1671C43.9203 28.1671 42.311 27.5031 41.1238 26.4148V32.2819C41.1238 32.8661 40.5964 33.3703 39.99 33.3703C39.4356 33.3703 38.8818 32.866 38.8818 32.2819V15.6626C38.8818 15.0789 39.4356 14.5742 39.99 14.5742C40.5964 14.5742 41.1238 15.0788 41.1238 15.6626V16.2202ZM45.6617 16.7518C43.1289 16.7518 41.1238 18.7688 41.1238 21.3441C41.1238 23.8928 43.1288 25.9102 45.6617 25.9102C48.2211 25.9102 50.2254 23.8929 50.2254 21.3441C50.2254 18.7688 48.2211 16.7518 45.6617 16.7518ZM71.8097 20.0963V26.972C71.8097 27.5561 71.2552 28.0604 70.7015 28.0604C70.0943 28.0604 69.5669 27.5561 69.5669 26.972V15.6626C69.5669 15.0785 70.0943 14.5742 70.7015 14.5742C71.2296 14.5742 71.7826 15.052 71.8097 15.6096C72.7328 14.893 73.92 14.4944 75.2126 14.4683C75.925 14.4683 76.4521 15.0255 76.4521 15.5831C76.4521 16.1933 75.8987 16.7512 75.2126 16.7512C73.4453 16.8041 71.8097 17.4416 71.8097 20.0963ZM79.6703 14.5742C79.0639 14.5742 78.5365 15.0785 78.5365 15.6626V26.972C78.5365 27.5561 79.0639 28.0604 79.6703 28.0604C80.2247 28.0604 80.7785 27.5561 80.7785 26.972V15.6626C80.7785 15.0784 80.2247 14.5742 79.6703 14.5742ZM93.9966 15.6626C93.9966 15.0785 94.5232 14.5742 95.1304 14.5742C95.6845 14.5742 96.2386 15.0785 96.2386 15.6626V26.972C96.2386 27.5561 95.6844 28.0604 95.1304 28.0604C94.5232 28.0604 93.9966 27.5561 93.9966 26.972V26.4144C92.7831 27.5027 91.1994 28.1664 89.4576 28.1664C85.6589 28.1664 82.6251 25.1142 82.6251 21.2911C82.6251 17.5215 85.6589 14.4683 89.4576 14.4683C91.1994 14.4683 92.783 15.132 93.9966 16.2207V15.6626ZM89.4577 25.8836C91.9905 25.8836 93.9967 23.8659 93.9967 21.291C93.9967 18.7423 91.9905 16.725 89.4577 16.725C86.8989 16.725 84.8946 18.7422 84.8946 21.291C84.8946 23.866 86.8989 25.8836 89.4577 25.8836ZM107.662 20.2288C107.662 18.3444 106.026 16.6981 104.153 16.6981C102.332 16.6981 100.644 17.4415 100.644 20.0963V26.972C100.644 27.5561 100.09 28.0604 99.5354 28.0604C98.9282 28.0604 98.4015 27.5561 98.4015 26.972V15.6626C98.4015 15.0785 98.9282 14.5742 99.5354 14.5742C100.063 14.5742 100.617 15.052 100.644 15.6096C101.594 14.8657 102.807 14.4683 104.125 14.4683C107.186 14.4683 109.904 16.8844 109.904 19.9101V26.9719C109.904 27.556 109.351 28.0603 108.796 28.0603C108.189 28.0603 107.662 27.556 107.662 26.9719V20.2288ZM27.1553 20.9197C27.1026 17.4416 24.0165 14.4683 20.3756 14.4683C16.5762 14.4683 13.5427 17.5214 13.5427 21.291C13.5427 25.114 16.5762 28.1663 20.3756 28.1663C22.1957 28.1663 23.8848 27.4497 25.0979 26.2289C25.3353 26.0165 25.4937 25.6977 25.4937 25.379C25.4937 24.7688 24.9659 24.2377 24.3591 24.2377C24.0165 24.2377 23.6997 24.45 23.4623 24.6893C22.6968 25.5119 21.5628 25.8836 20.3756 25.8836C18.1072 25.8836 16.2617 24.319 15.8645 22.1429H26.0478C26.0553 22.1429 26.0621 22.1403 26.0696 22.1403H26.1004C26.1192 22.1385 26.138 22.132 26.1572 22.129C26.1963 22.1233 26.2351 22.1176 26.2727 22.1062C26.7535 21.9761 27.1553 21.5132 27.1553 20.9197ZM20.3756 16.725C22.4214 16.725 24.121 18.0462 24.701 19.887H16.0232C16.6032 18.0461 18.3051 16.725 20.3756 16.725ZM67.6688 20.9197C67.6154 17.4416 64.5288 14.4683 60.8886 14.4683C57.0892 14.4683 54.0542 17.5214 54.0542 21.291C54.0542 25.114 57.0892 28.1663 60.8886 28.1663C62.7085 28.1663 64.3972 27.4497 65.6104 26.2289C65.8481 26.0165 66.0061 25.6977 66.0061 25.379C66.0061 24.7688 65.4787 24.2377 64.8723 24.2377C64.5288 24.2377 64.2117 24.45 63.9748 24.6893C63.2097 25.5119 62.0751 25.8836 60.8886 25.8836C58.6202 25.8836 56.774 24.319 56.377 22.1429H66.5432C66.55 22.1429 66.5576 22.1403 66.5643 22.1403H66.6128C66.6433 22.1377 66.673 22.1282 66.7031 22.1221C66.7185 22.1187 66.7343 22.1176 66.7493 22.113C67.2459 21.9976 67.6688 21.5276 67.6688 20.9197ZM60.8885 16.725C62.9337 16.725 64.6341 18.0462 65.2145 19.887H56.5354C57.1154 18.0461 58.8173 16.725 60.8885 16.725ZM112.733 25.6221C112.048 25.6221 111.469 26.1869 111.469 26.8554C111.469 27.5238 112.048 28.0886 112.733 28.0886C113.432 28.0886 114 27.5354 114 26.8554C114 26.1753 113.432 25.6221 112.733 25.6221ZM113.779 26.8554C113.779 27.4048 113.31 27.8516 112.733 27.8516C112.169 27.8516 111.71 27.4047 111.71 26.8554C111.71 26.3061 112.169 25.8592 112.733 25.8592C113.31 25.8592 113.779 26.3062 113.779 26.8554ZM112.939 26.9711C113.077 26.8872 113.158 26.7389 113.158 26.569C113.158 26.3114 112.963 26.1172 112.704 26.1172H112.522C112.422 26.1172 112.35 26.1959 112.35 26.3042V27.4626C112.35 27.5297 112.407 27.5844 112.477 27.5844C112.547 27.5844 112.6 27.5321 112.6 27.4626V27.0331H112.695L112.92 27.5167C112.939 27.5579 112.981 27.5844 113.028 27.5844C113.048 27.5844 113.069 27.5795 113.084 27.5722C113.129 27.5547 113.158 27.5129 113.158 27.4659C113.158 27.4511 113.158 27.4344 113.148 27.4141L112.939 26.9711ZM112.907 26.569C112.907 26.5712 112.905 26.7867 112.708 26.7867H112.6V26.3605H112.708C112.905 26.3605 112.907 26.5604 112.907 26.569Z" fill="#1D4F91"/>
</svg>
