<svg width="124" height="27" viewBox="0 0 124 27" fill="none" xmlns="http://www.w3.org/2000/svg">
<path d="M40.2717 10.8983C40.2717 6.71067 42.8757 4.1936 47.5002 4.1936C52.0758 4.1936 54.7038 6.71067 54.7038 10.8983V16.4989C54.7038 20.6865 52.0758 23.2045 47.5002 23.2045C42.8784 23.2045 40.2717 20.6865 40.2717 16.4989V10.8983ZM51.5489 10.8729C51.5489 8.50897 50.1088 7.19923 47.5049 7.19923C44.9009 7.19923 43.4562 8.48642 43.4562 10.8729V16.5243C43.4562 18.9136 44.8972 20.198 47.5002 20.198C50.1032 20.198 51.5443 18.8882 51.5443 16.5243L51.5489 10.8729Z" fill="white"/>
<path d="M56.9805 14.3923C56.9805 11.0268 58.9272 9.12512 62.7938 9.12512C65.6501 9.12512 67.52 10.4612 68.2031 12.4906C68.4047 13.1333 68.2531 13.4161 67.6485 13.6472L66.5393 14.007C65.9329 14.2382 65.6547 14.0841 65.4301 13.4677C65.0002 12.3111 64.0648 11.7465 62.6745 11.7465C60.8258 11.7465 59.9199 12.5921 59.9199 14.2635V18.0697C59.9199 19.6885 60.8804 20.5877 62.6745 20.5877C64.0611 20.5877 65.0002 19.9967 65.4301 18.8147C65.6575 18.1984 65.9357 18.095 66.5393 18.3008L67.6763 18.6353C68.2574 18.8664 68.4345 19.2516 68.2078 19.7909C67.3232 22.0769 65.4522 23.2081 62.5692 23.2081C58.8283 23.2081 56.9832 21.3064 56.9832 17.9409L56.9805 14.3923Z" fill="white"/>
<path d="M76.9262 9.12512C77.5076 9.12512 77.7091 9.30552 77.7091 9.92186V11.0493C77.7091 11.6403 77.5076 11.8461 76.9262 11.8461H76.0157C75.0802 11.8461 74.2723 11.9485 73.6123 12.1542C73.4348 12.1796 73.359 12.283 73.359 12.4624V22.0224C73.359 22.6133 73.1825 22.8182 72.6011 22.8182H71.2145C70.6331 22.8182 70.4307 22.6133 70.4307 22.0224V11.3603C70.4307 10.5382 70.6081 10.2329 71.417 9.89649C72.6556 9.43423 74.2227 9.17711 76.1183 9.12512H76.9262Z" fill="white"/>
<path d="M78.6438 14.2635C78.6438 11.0521 80.7412 9.12512 84.4571 9.12512C88.198 9.12512 90.2954 11.0521 90.2954 14.2635V18.0697C90.2954 21.2811 88.198 23.2081 84.4571 23.2081C80.7412 23.2081 78.6438 21.2811 78.6438 18.0697V14.2635ZM87.3633 14.2635C87.3633 12.6964 86.3021 11.8207 84.4571 11.8207C82.6121 11.8207 81.5759 12.6935 81.5759 14.2635V18.0697C81.5759 19.6105 82.6121 20.5125 84.4571 20.5125C86.3021 20.5125 87.3633 19.6124 87.3633 18.0697V14.2635Z" fill="white"/>
<path d="M95.8072 22.0223C95.8072 22.6133 95.6048 22.8181 95.0234 22.8181H93.6571C93.0498 22.8181 92.8733 22.6133 92.8733 22.0223V4.60391C92.8733 4.01293 93.0498 3.80811 93.6571 3.80811H95.0215C95.6029 3.80811 95.8054 4.01293 95.8054 4.60391L95.8072 22.0223Z" fill="white"/>
<path d="M109.127 9.51135C109.708 9.51135 109.911 9.69081 109.911 10.2818V20.8659C109.911 21.688 109.733 21.9708 108.925 22.3052C107.434 22.8953 105.791 23.2044 103.971 23.2044C100.432 23.2044 98.6882 21.3544 98.6882 18.0369V10.2818C98.6882 9.69081 98.8907 9.51135 99.4721 9.51135H100.859C101.44 9.51135 101.617 9.69081 101.617 10.2818V17.9373C101.617 19.6285 102.526 20.4806 104.371 20.4806C105.157 20.4932 105.94 20.3893 106.697 20.1725C106.784 20.1406 106.858 20.0806 106.908 20.0017C106.958 19.9227 106.981 19.8292 106.974 19.7356V10.2818C106.974 9.69081 107.176 9.51135 107.758 9.51135H109.127Z" fill="white"/>
<path d="M117.798 9.12512C120.502 9.12512 122.323 10.0506 123.207 11.8743C123.484 12.3882 123.333 12.7734 122.802 13.0308L121.665 13.4931C121.084 13.7242 120.932 13.6726 120.603 13.1333C120.123 12.2341 119.217 11.7972 117.874 11.7972C116.281 11.7972 115.498 12.2595 115.498 13.1849C115.498 14.3124 116.256 14.5717 118.456 14.7822C121.894 15.1167 123.612 16.0412 123.612 18.9162C123.612 21.5113 121.671 23.2071 118.153 23.2071C115.195 23.2071 113.3 22.1793 112.514 20.0982C112.313 19.5589 112.489 19.199 113.02 19.0196L114.158 18.6597C114.663 18.4539 114.966 18.5564 115.194 19.1473C115.573 20.0982 116.533 20.5567 118.05 20.5567C119.844 20.5567 120.731 20.0427 120.731 19.0412C120.731 17.9137 119.947 17.6318 117.698 17.3969C116.51 17.2682 115.827 17.1658 114.842 16.7806C114.405 16.629 114.002 16.3933 113.654 16.0863C113.047 15.547 112.593 14.5708 112.593 13.261C112.592 10.7186 114.386 9.12512 117.798 9.12512Z" fill="white"/>
<path d="M26.6022 3.91351C26.3559 3.654 26.0612 3.44696 25.7354 3.30448C25.4095 3.16201 25.059 3.08696 24.7042 3.08371C24.3495 3.08046 23.9977 3.14909 23.6694 3.28557C23.341 3.42205 23.0427 3.62366 22.7919 3.87862C22.541 4.13358 22.3427 4.43679 22.2084 4.77053C22.0741 5.10427 22.0066 5.46186 22.0098 5.82242C22.013 6.18298 22.0868 6.53927 22.227 6.8705C22.3672 7.20173 22.5709 7.50126 22.8262 7.75158C23.3217 8.25576 23.602 8.93794 23.6065 9.65058C23.611 10.3632 23.3393 11.049 22.8502 11.5596C22.8428 11.5671 22.8336 11.5718 22.8262 11.5803C22.3252 12.091 22.0439 12.7828 22.0439 13.504C22.0439 14.2252 22.3252 14.917 22.8262 15.4277C22.8336 15.4353 22.8428 15.4399 22.8502 15.4475C23.3393 15.9581 23.611 16.6438 23.6065 17.3565C23.602 18.0691 23.3217 18.7513 22.8262 19.2555C22.4526 19.635 22.1982 20.1187 22.0951 20.6453C21.992 21.1718 22.0448 21.7176 22.2469 22.2137C22.449 22.7097 22.7913 23.1337 23.2305 23.432C23.6696 23.7303 24.186 23.8895 24.7142 23.8895C25.2424 23.8895 25.7588 23.7303 26.1979 23.432C26.6371 23.1337 26.9794 22.7097 27.1815 22.2137C27.3836 21.7176 27.4364 21.1718 27.3333 20.6453C27.2302 20.1187 26.9758 19.635 26.6022 19.2555C26.1069 18.7512 25.8267 18.069 25.8222 17.3565C25.8177 16.6439 26.0893 15.9582 26.5782 15.4475C26.5856 15.4399 26.5948 15.4353 26.6022 15.4277C27.1032 14.917 27.3845 14.2252 27.3845 13.504C27.3845 12.7828 27.1032 12.091 26.6022 11.5803C26.5948 11.5718 26.5856 11.5671 26.5782 11.5596C26.0893 11.0489 25.8177 10.3631 25.8222 9.65058C25.8267 8.93802 26.1069 8.25588 26.6022 7.75158C27.1028 7.24257 27.3841 6.55229 27.3841 5.83255C27.3841 5.1128 27.1028 4.42253 26.6022 3.91351ZM34.1496 11.5868C34.5232 11.2073 34.7776 10.7236 34.8807 10.1971C34.9838 9.67049 34.931 9.12468 34.7289 8.62864C34.5268 8.1326 34.1845 7.70862 33.7453 7.41033C33.3062 7.11203 32.7898 6.95281 32.2616 6.95281C31.7334 6.95281 31.2171 7.11203 30.7779 7.41033C30.3387 7.70862 29.9964 8.1326 29.7943 8.62864C29.5922 9.12468 29.5394 9.67049 29.6425 10.1971C29.7456 10.7236 30 11.2073 30.3736 11.5868C30.6217 11.8388 30.8185 12.1379 30.9528 12.4672C31.0871 12.7965 31.1562 13.1494 31.1562 13.5059C31.1562 13.8623 31.0871 14.2153 30.9528 14.5446C30.8185 14.8738 30.6217 15.173 30.3736 15.4249C30 15.8045 29.7456 16.2881 29.6425 16.8147C29.5394 17.3413 29.5922 17.8871 29.7943 18.3831C29.9964 18.8792 30.3387 19.3031 30.7779 19.6014C31.2171 19.8997 31.7334 20.0589 32.2616 20.0589C32.7898 20.0589 33.3062 19.8997 33.7453 19.6014C34.1845 19.3031 34.5268 18.8792 34.7289 18.3831C34.931 17.8871 34.9838 17.3413 34.8807 16.8147C34.7776 16.2881 34.5232 15.8045 34.1496 15.4249C33.649 14.9159 33.3678 14.2256 33.3678 13.5059C33.3678 12.7861 33.649 12.0959 34.1496 11.5868ZM8.33867 19.9094C8.0899 20.1624 7.92051 20.4846 7.85192 20.8355C7.78333 21.1863 7.81862 21.5499 7.95332 21.8803C8.08802 22.2108 8.31609 22.4932 8.6087 22.6919C8.9013 22.8906 9.24529 22.9966 9.59719 22.9966C9.94908 22.9966 10.2931 22.8906 10.5857 22.6919C10.8783 22.4932 11.1064 22.2108 11.2411 21.8803C11.3758 21.5499 11.411 21.1863 11.3425 20.8355C11.2739 20.4846 11.1045 20.1624 10.8557 19.9094C10.6905 19.7414 10.4943 19.6081 10.2783 19.5171C10.0624 19.4262 9.83093 19.3794 9.59719 19.3794C9.36344 19.3794 9.13199 19.4262 8.91605 19.5171C8.70011 19.6081 8.50391 19.7414 8.33867 19.9094ZM15.8972 23.7334C15.6482 23.9865 15.4787 24.3089 15.41 24.6599C15.3414 25.0109 15.3766 25.3748 15.5114 25.7054C15.6461 26.036 15.8743 26.3187 16.1671 26.5175C16.4599 26.7163 16.8041 26.8224 17.1562 26.8224C17.5083 26.8224 17.8525 26.7163 18.1452 26.5175C18.438 26.3187 18.6662 26.036 18.8009 25.7054C18.9357 25.3748 18.971 25.0109 18.9023 24.6599C18.8336 24.3089 18.6641 23.9865 18.4151 23.7334C18.0811 23.3939 17.6281 23.2032 17.1557 23.2032C16.6833 23.2032 16.2303 23.3939 15.8963 23.7334H15.8972ZM18.4142 3.27837C18.6632 3.02529 18.8327 2.70285 18.9014 2.35183C18.97 2.00082 18.9348 1.63699 18.8 1.30635C18.6652 0.975706 18.4371 0.693105 18.1443 0.494279C17.8515 0.295453 17.5073 0.189331 17.1552 0.189331C16.8031 0.189331 16.4589 0.295453 16.1662 0.494279C15.8734 0.693105 15.6452 0.975706 15.5105 1.30635C15.3757 1.63699 15.3404 2.00082 15.4091 2.35183C15.4778 2.70285 15.6473 3.02529 15.8963 3.27837C16.2303 3.61757 16.6831 3.8081 17.1552 3.8081C17.6274 3.8081 18.0802 3.61757 18.4142 3.27837ZM7.70825 11.5934C7.33469 11.973 7.08027 12.4566 6.97716 12.9832C6.87405 13.5098 6.92688 14.0556 7.12898 14.5516C7.33107 15.0477 7.67336 15.4716 8.11253 15.7699C8.55171 16.0682 9.06805 16.2274 9.59626 16.2274C10.1245 16.2274 10.6408 16.0682 11.08 15.7699C11.5192 15.4716 11.8615 15.0477 12.0635 14.5516C12.2656 14.0556 12.3185 13.5098 12.2154 12.9832C12.1123 12.4566 11.8578 11.973 11.4843 11.5934C10.9835 11.0846 10.3044 10.7987 9.59626 10.7987C8.88816 10.7987 8.20904 11.0846 7.70825 11.5934ZM10.8594 7.11645C11.1085 6.86341 11.2781 6.54098 11.3469 6.18993C11.4157 5.83887 11.3805 5.47498 11.2458 5.14426C11.1111 4.81354 10.8829 4.53086 10.5901 4.33198C10.2973 4.13309 9.95304 4.02694 9.60088 4.02694C9.24873 4.02694 8.90448 4.13309 8.61169 4.33198C8.31889 4.53086 8.0907 4.81354 7.95599 5.14426C7.82127 5.47498 7.78607 5.83887 7.85485 6.18993C7.92362 6.54098 8.09328 6.86341 8.34237 7.11645C8.67633 7.45536 9.12897 7.64571 9.60088 7.64571C10.0728 7.64571 10.5254 7.45536 10.8594 7.11645ZM0.789407 8.39236C0.540454 8.64545 0.370924 8.96788 0.302254 9.3189C0.233584 9.66991 0.268857 10.0337 0.403614 10.3644C0.538371 10.695 0.766559 10.9776 1.05932 11.1765C1.35209 11.3753 1.69629 11.4814 2.04839 11.4814C2.40049 11.4814 2.74468 11.3753 3.03745 11.1765C3.33022 10.9776 3.5584 10.695 3.69316 10.3644C3.82792 10.0337 3.86319 9.66991 3.79452 9.3189C3.72585 8.96788 3.55632 8.64545 3.30737 8.39236C2.97337 8.05316 2.52053 7.86263 2.04839 7.86263C1.57624 7.86263 1.12341 8.05316 0.789407 8.39236ZM0.789407 16.0685C0.540454 16.3216 0.370924 16.644 0.302254 16.995C0.233584 17.3461 0.268857 17.7099 0.403614 18.0405C0.538371 18.3712 0.766559 18.6538 1.05932 18.8526C1.35209 19.0514 1.69629 19.1575 2.04839 19.1575C2.40049 19.1575 2.74468 19.0514 3.03745 18.8526C3.33022 18.6538 3.5584 18.3712 3.69316 18.0405C3.82792 17.7099 3.86319 17.3461 3.79452 16.995C3.72585 16.644 3.55632 16.3216 3.30737 16.0685C3.14217 15.9003 2.94596 15.7668 2.72997 15.6757C2.51398 15.5846 2.28243 15.5376 2.04858 15.5375C1.81473 15.5374 1.58315 15.5842 1.36709 15.6752C1.15103 15.7661 0.954728 15.8995 0.789407 16.0676V16.0685ZM15.2714 15.4277C14.8978 15.8073 14.6434 16.291 14.5403 16.8175C14.4372 17.3441 14.49 17.8899 14.6921 18.3859C14.8942 18.882 15.2365 19.306 15.6757 19.6042C16.1148 19.9025 16.6312 20.0618 17.1594 20.0618C17.6876 20.0618 18.2039 19.9025 18.6431 19.6042C19.0823 19.306 19.4246 18.882 19.6267 18.3859C19.8288 17.8899 19.8816 17.3441 19.7785 16.8175C19.6754 16.291 19.421 15.8073 19.0474 15.4277C18.5466 14.9189 17.8675 14.633 17.1594 14.633C16.4513 14.633 15.7722 14.9189 15.2714 15.4277ZM15.2714 7.75158C14.8978 8.13116 14.6434 8.61481 14.5403 9.14137C14.4372 9.66793 14.49 10.2137 14.6921 10.7098C14.8942 11.2058 15.2365 11.6298 15.6757 11.9281C16.1148 12.2264 16.6312 12.3856 17.1594 12.3856C17.6876 12.3856 18.2039 12.2264 18.6431 11.9281C19.0823 11.6298 19.4246 11.2058 19.6267 10.7098C19.8288 10.2137 19.8816 9.66793 19.7785 9.14137C19.6754 8.61481 19.421 8.13116 19.0474 7.75158C18.5466 7.24273 17.8675 6.95688 17.1594 6.95688C16.4513 6.95688 15.7722 7.24273 15.2714 7.75158Z" fill="url(#paint0_linear_2205_713)"/>
<defs>
<linearGradient id="paint0_linear_2205_713" x1="0.268067" y1="13.5063" x2="34.9316" y2="13.5063" gradientUnits="userSpaceOnUse">
<stop stop-color="#03B7EF"/>
<stop offset="1" stop-color="#5064FA"/>
</linearGradient>
</defs>
</svg>
