<svg width="172" height="171" viewBox="0 0 172 171" fill="none" xmlns="http://www.w3.org/2000/svg">
<g filter="url(#filter0_d_1027_11)">
<path d="M9.00131 86.5938C-5.7372 47.008 0.886359 12.3705 6.04045 0L74.4694 0.651081C78.4172 66.8009 32.4689 85.5086 9.00131 86.5938Z" fill="#C670E7"/>
<path d="M153.999 86.5938C168.737 47.008 162.114 12.3705 156.96 0L88.5306 0.651081C84.5828 66.8009 130.531 85.5086 153.999 86.5938Z" fill="#62D89F"/>
<path d="M81.5 161.302C49.2468 149.64 27.3112 125.345 20.375 114.655C38.0622 88.4814 68.4947 82.8017 81.5 83.2336C113.233 82.1971 135.472 103.966 142.625 114.979C119.736 145.559 92.3378 158.603 81.5 161.302Z" fill="#00A8FF"/>
</g>
<defs>
<filter id="filter0_d_1027_11" x="0" y="0" width="172" height="170.302" filterUnits="userSpaceOnUse" color-interpolation-filters="sRGB">
<feFlood flood-opacity="0" result="BackgroundImageFix"/>
<feColorMatrix in="SourceAlpha" type="matrix" values="0 0 0 0 0 0 0 0 0 0 0 0 0 0 0 0 0 0 127 0" result="hardAlpha"/>
<feOffset dx="5" dy="5"/>
<feGaussianBlur stdDeviation="2"/>
<feComposite in2="hardAlpha" operator="out"/>
<feColorMatrix type="matrix" values="0 0 0 0 0 0 0 0 0 0 0 0 0 0 0 0 0 0 0.25 0"/>
<feBlend mode="normal" in2="BackgroundImageFix" result="effect1_dropShadow_1027_11"/>
<feBlend mode="normal" in="SourceGraphic" in2="effect1_dropShadow_1027_11" result="shape"/>
</filter>
</defs>
</svg>
