<svg width="37" height="37" viewBox="0 0 37 37" fill="none" xmlns="http://www.w3.org/2000/svg">
<path d="M16.6333 34.201C16.5914 34.5888 16.2427 34.8708 15.857 34.8125C13.4702 34.4517 11.1873 33.5759 9.16832 32.2425C6.95262 30.7792 5.11892 28.8074 3.82018 26.4914C2.52144 24.1754 1.79532 21.5824 1.70237 18.9287C1.60943 16.2751 2.15236 13.6377 3.28587 11.2365C4.41939 8.83531 6.11063 6.73998 8.21853 5.12527C10.3264 3.51056 12.7899 2.42328 15.4034 1.95413C18.0169 1.48497 20.7047 1.64755 23.2426 2.4283C25.5552 3.13973 27.6823 4.34565 29.4777 5.95921C29.7678 6.21995 29.7717 6.66835 29.4989 6.94716C29.2261 7.22597 28.78 7.22949 28.4888 6.9699C26.8551 5.51324 24.9246 4.42364 22.8273 3.77843C20.5046 3.06391 18.0448 2.91513 15.653 3.34448C13.2611 3.77384 11.0066 4.76889 9.07754 6.24665C7.14844 7.7244 5.60065 9.642 4.56328 11.8395C3.5259 14.037 3.02903 16.4507 3.11409 18.8793C3.19915 21.3079 3.86368 23.6809 5.05226 25.8004C6.24084 27.92 7.919 29.7246 9.94677 31.0638C11.7778 32.273 13.846 33.0711 16.0089 33.4067C16.3944 33.4665 16.6752 33.8132 16.6333 34.201Z" fill="#1E9C0F"/>
<path d="M11.071 27.0212C10.7958 27.3404 10.3121 27.3789 10.0107 27.0842C9.07754 26.1716 8.30677 25.1034 7.73179 23.923C7.04502 22.5131 6.65146 20.9714 6.57429 19.3887C6.49712 17.806 6.73789 16.2143 7.28244 14.7074C7.82698 13.2004 8.66429 11.8086 9.74506 10.614C10.8258 9.41932 12.1282 8.44593 13.5756 7.75112C15.0229 7.0563 16.5859 6.65411 18.1726 6.56821C19.7593 6.48232 21.3376 6.71446 22.8146 7.25096C24.0497 7.69963 25.1931 8.35359 26.1985 9.18424C26.5248 9.45387 26.5362 9.9413 26.2448 10.2483C25.954 10.5548 25.4716 10.5652 25.1433 10.2992C24.2834 9.60247 23.3107 9.05221 22.2622 8.67135C20.9725 8.20287 19.5944 8.00017 18.2089 8.07517C16.8234 8.15018 15.4585 8.50137 14.1947 9.10808C12.9309 9.71479 11.7937 10.5648 10.85 11.6079C9.90622 12.6511 9.17509 13.8664 8.6996 15.1823C8.2241 16.4981 8.01386 17.888 8.08124 19.27C8.14863 20.652 8.49228 21.9982 9.09197 23.2293C9.57888 24.229 10.2266 25.1363 11.0085 25.9171C11.3086 26.2168 11.348 26.6999 11.071 27.0212Z" fill="#1E9C0F"/>
<path d="M12.9789 18.9723C12.605 19.0183 12.2586 18.756 12.2496 18.3794C12.2263 17.4019 12.4516 16.4326 12.9105 15.5588C13.475 14.4837 14.3664 13.6041 15.4658 13.0371C16.5652 12.4701 17.8205 12.2426 19.0646 12.3849C20.0751 12.5004 21.0392 12.8555 21.8732 13.414C22.1903 13.6263 22.2186 14.0683 21.9633 14.352C21.7189 14.6236 21.305 14.6473 20.9967 14.4513C20.3729 14.0547 19.6609 13.8018 18.9165 13.7167C17.9523 13.6064 16.9794 13.7827 16.1273 14.2222C15.2752 14.6616 14.5844 15.3434 14.1468 16.1766C13.8191 16.8006 13.6451 17.4874 13.6339 18.1841C13.6277 18.5709 13.3628 18.9251 12.9789 18.9723Z" fill="#1E9C0F"/>
<path d="M31.5312 5.45309L18.5564 17.3522" stroke="#1FCD25" stroke-width="3" stroke-linecap="round"/>
</svg>
