<svg width="27" height="33" viewBox="0 0 27 33" fill="none" xmlns="http://www.w3.org/2000/svg">
<path d="M16.3337 10.3091C11.7534 10.3091 7.76432 7.76741 5.6629 4.0078C8.51937 1.51212 12.2492 0 16.3292 0C20.4092 0 24.139 1.51212 27 4.0124C24.8986 7.77201 20.9095 10.3137 16.3292 10.3137L16.3337 10.3091ZM3.97086 27.2825C1.49646 24.3915 0 20.6227 0 16.5C0 12.3773 1.49646 8.6085 3.97086 5.71755C7.69154 7.84095 10.2069 11.8717 10.2069 16.5C10.2069 21.1283 7.69154 25.1591 3.97086 27.2825ZM16.3292 22.6864C20.9095 22.6864 24.8986 25.228 27 28.9876C24.139 31.4879 20.4092 33 16.3292 33C12.2492 33 8.51937 31.4879 5.65836 28.9876C7.75977 25.228 11.7488 22.6864 16.3292 22.6864Z" fill="#62D89F"/>
</svg>
