<svg width="40" height="42" viewBox="0 0 40 42" fill="none" xmlns="http://www.w3.org/2000/svg">
<circle cx="19.1206" cy="10.6933" r="3.19424" fill="#2A4ECE"/>
<circle cx="28.9938" cy="10.6933" r="3.19424" fill="#2A4ECE"/>
<circle cx="10.4091" cy="10.6933" r="3.19424" fill="#2A4ECE"/>
<circle cx="20.0456" cy="30.5281" r="3.19424" transform="rotate(-180 20.0456 30.5281)" fill="#2A4ECE"/>
<circle cx="10.1725" cy="30.5281" r="3.19424" transform="rotate(-180 10.1725 30.5281)" fill="#2A4ECE"/>
<circle cx="28.7572" cy="30.5281" r="3.19424" transform="rotate(-180 28.7572 30.5281)" fill="#2A4ECE"/>
<circle cx="16.577" cy="2.14728" r="2.14727" transform="rotate(-180 16.577 2.14728)" fill="#2A4ECE"/>
<circle cx="22.5893" cy="2.14728" r="2.14727" transform="rotate(-180 22.5893 2.14728)" fill="#2A4ECE"/>
<circle cx="16.577" cy="39.2522" r="2.14727" transform="rotate(-180 16.577 39.2522)" fill="#2A4ECE"/>
<circle cx="22.5893" cy="39.2522" r="2.14727" transform="rotate(-180 22.5893 39.2522)" fill="#2A4ECE"/>
<circle cx="13.9069" cy="21.1191" r="3.68958" fill="#2A4ECE"/>
<circle cx="25.2594" cy="21.1191" r="3.68958" fill="#2A4ECE"/>
<circle cx="35.4767" cy="21.1191" r="3.68958" fill="#2A4ECE"/>
<circle cx="3.68958" cy="21.1191" r="3.68958" fill="#2A4ECE"/>
</svg>
