<svg width="37" height="37" viewBox="0 0 37 37" fill="none" xmlns="http://www.w3.org/2000/svg">
<path d="M6.02 0.859863C2.70527 0.859863 0 3.56514 0 6.87986V30.9599C0 34.2746 2.70527 36.9799 6.02 36.9799H30.1C33.4147 36.9799 36.12 34.2746 36.12 30.9599V6.87986C36.12 3.56514 33.4147 0.859863 30.1 0.859863H6.02ZM6.02 2.57986H30.1C32.4854 2.57986 34.4 4.49451 34.4 6.87986V30.9599C34.4 33.3452 32.4854 35.2599 30.1 35.2599H6.02C3.63465 35.2599 1.72 33.3452 1.72 30.9599V6.87986C1.72 4.49451 3.63465 2.57986 6.02 2.57986ZM7.81391 8.59986L15.7454 19.8689L7.74 29.2399H9.89L16.7162 21.2479L22.3398 29.2399H29.1661L20.4586 16.8673L27.52 8.59986H25.37L19.4877 15.4883L14.6402 8.59986H7.81391ZM11.1061 10.3199H13.7415L25.8739 27.5199H23.2385L11.1061 10.3199Z" fill="white"/>
</svg>
